<?xml version="1.0" standalone="no"?>
<!DOCTYPE svg PUBLIC "-//W3C//DTD SVG 20010904//EN"
 "http://www.w3.org/TR/2001/REC-SVG-20010904/DTD/svg10.dtd">
<svg version="1.0" xmlns="http://www.w3.org/2000/svg"
 width="1024.000000pt" height="1024.000000pt" viewBox="0 0 1024.000000 1024.000000"
 preserveAspectRatio="xMidYMid meet">

<g transform="translate(0.000000,1024.000000) scale(0.100000,-0.100000)"
fill="#5b585a" stroke="none">
<path d="M4943 9465 c-321 -58 -583 -256 -728 -550 -66 -134 -95 -238 -102
-373 l-6 -102 -41 -10 c-647 -164 -1246 -555 -1679 -1095 -432 -539 -685
-1166 -752 -1864 -21 -219 -20 -308 5 -349 60 -98 214 -97 271 3 12 22 20 75
28 190 44 609 211 1111 530 1593 373 564 995 1024 1604 1187 109 29 97 28 97
12 0 -7 21 -56 46 -108 140 -287 395 -485 714 -551 124 -26 324 -21 445 12
313 84 570 305 692 593 287 680 -218 1433 -956 1426 -53 0 -128 -7 -168 -14z
m350 -334 c238 -61 420 -232 499 -466 19 -60 23 -90 23 -205 0 -122 -3 -144
-29 -224 -73 -222 -267 -403 -496 -463 -88 -23 -254 -22 -339 1 -363 99 -583
461 -506 831 21 102 92 238 165 317 62 68 167 145 236 174 133 56 311 69 447
35z"/>
<path d="M6851 8182 c-97 -49 -112 -184 -29 -255 18 -16 94 -69 169 -117 629
-410 1094 -1041 1305 -1773 76 -265 112 -503 121 -802 8 -272 -9 -479 -59
-737 l-20 -106 -127 5 c-282 12 -517 -73 -717 -260 -323 -302 -403 -780 -198
-1177 177 -342 529 -546 909 -527 638 33 1078 663 888 1272 -69 220 -215 418
-395 533 -55 34 -59 39 -53 67 73 378 89 525 89 835 0 145 -5 303 -12 365 -86
744 -355 1370 -831 1940 -200 239 -517 514 -761 659 -169 100 -212 113 -279
78z m1517 -4135 c107 -37 177 -82 264 -168 199 -198 245 -497 117 -759 -34
-69 -58 -101 -128 -170 -135 -134 -276 -193 -461 -194 -111 0 -179 14 -275 59
-174 80 -302 226 -361 412 -25 79 -30 246 -9 337 53 240 259 448 495 501 100
23 266 14 358 -18z"/>
<path d="M2009 4400 c-387 -45 -707 -320 -826 -707 -25 -82 -27 -101 -27 -273
0 -214 12 -276 88 -435 54 -115 90 -168 174 -256 122 -130 275 -223 449 -275
110 -32 302 -43 420 -24 123 19 270 76 389 150 17 10 35 -5 159 -127 347 -344
724 -591 1164 -764 366 -143 731 -215 1146 -226 364 -9 670 28 1010 122 275
77 568 199 627 262 71 75 61 184 -22 241 -55 37 -108 30 -246 -31 -293 -132
-563 -207 -904 -254 -154 -20 -557 -23 -705 -5 -543 69 -965 223 -1390 507
-172 116 -303 225 -463 388 l-123 125 34 53 c75 117 126 252 148 383 17 107 7
309 -20 416 -100 390 -437 679 -851 730 -93 11 -133 11 -231 0z m338 -354
c272 -88 453 -341 453 -631 0 -378 -299 -675 -678 -675 -295 0 -559 207 -638
500 -23 86 -23 252 0 339 40 149 129 281 256 380 44 33 151 84 220 103 98 27
277 20 387 -16z"/>
</g>
</svg>
